<svg role="img" viewBox="0 0 24 24" xmlns="http://www.w3.org/2000/svg"><title>Remix</title><path d="M5.677 24H.108l.006-.3c.054-2.255.38-3.847 1.038-5.063.854-1.59 2.19-2.629 4.193-3.28.124-.04.247-.08.37-.118l.17-.052-.085-.07c-1.498-1.232-2.27-2.944-2.27-4.96 0-2.058.77-3.768 2.227-4.946C6.997 4.14 8.945 3.5 11.35 3.5h11.26v4.63h-2.138v11.684h-4.84V8.13h-4.2c-1.12 0-1.954.285-2.524.853-.561.56-.834 1.321-.834 2.323 0 .985.266 1.73.811 2.285.553.563 1.39.854 2.463.854h.59v4.37h-.648c-1.14 0-2.036.296-2.659.88-.621.583-.951 1.47-.953 2.72l-.001.585zM17.328 24v-6.686h4.84V24h-4.84z"/></svg>
