<svg width="614" height="67" viewBox="0 0 614 67" fill="none" xmlns="http://www.w3.org/2000/svg">
<path d="M15.792 7.712L9.584 52H0.24L6.448 7.712H15.792ZM42.481 17.056C44.913 17.056 46.8117 17.7813 48.177 19.232C49.585 20.6827 50.289 22.7093 50.289 25.312C50.289 25.9947 50.225 26.7627 50.097 27.616L46.705 52H37.745L40.945 29.28C41.0303 28.4267 41.073 27.8933 41.073 27.68C41.073 26.528 40.8597 25.7173 40.433 25.248C40.0063 24.7787 39.3877 24.544 38.577 24.544C35.9743 24.544 33.2223 27.3387 30.321 32.928L27.633 52H18.673L23.409 18.08H31.153L30.897 24.224C32.433 21.9627 34.1823 20.2133 36.145 18.976C38.1077 17.696 40.2197 17.056 42.481 17.056ZM75.525 10.4C73.9463 10.4 72.7303 10.784 71.877 11.552C71.0663 12.2773 70.5543 13.4507 70.341 15.072L69.893 18.08H77.893L75.973 24.544H68.997L65.605 48.736C65.1357 52.1493 64.2397 54.944 62.917 57.12C61.5943 59.3387 59.9517 61.1093 57.989 62.432C56.0263 63.7547 53.5517 64.9707 50.565 66.08L48.261 59.424C50.8637 58.4 52.805 57.1627 54.085 55.712C55.365 54.2613 56.2183 52.0213 56.645 48.992L60.037 24.544H54.789L55.685 18.08H60.933L61.445 14.56C61.8717 11.2747 63.237 8.62933 65.541 6.624C67.8877 4.576 70.981 3.552 74.821 3.552C78.0637 3.552 81.093 4.46933 83.909 6.304L80.709 11.808C79.2583 10.8693 77.5303 10.4 75.525 10.4ZM107.399 26.208C107.399 30.5173 105.394 33.6747 101.383 35.68C97.415 37.6427 92.1457 38.944 85.575 39.584C85.7883 43.9787 87.9003 46.176 91.911 46.176C93.4043 46.176 94.8337 45.92 96.199 45.408C97.5643 44.896 99.0577 44.1067 100.679 43.04L104.007 48.544C99.8683 51.5307 95.4737 53.024 90.823 53.024C86.1723 53.024 82.6097 51.7653 80.135 49.248C77.703 46.688 76.487 43.2107 76.487 38.816C76.487 35.4027 77.127 32.032 78.407 28.704C79.687 25.376 81.735 22.6027 84.551 20.384C87.367 18.1653 90.951 17.056 95.303 17.056C99.143 17.056 102.108 17.9307 104.199 19.68C106.332 21.3867 107.399 23.5627 107.399 26.208ZM86.023 33.824C90.247 33.4827 93.3403 32.6933 95.303 31.456C97.3083 30.176 98.311 28.5547 98.311 26.592C98.311 25.696 98.0123 24.928 97.415 24.288C96.8603 23.648 95.943 23.328 94.663 23.328C92.231 23.328 90.311 24.3307 88.903 26.336C87.495 28.3413 86.535 30.8373 86.023 33.824ZM120.09 43.488L120.026 44.192C120.026 45.216 120.517 45.728 121.498 45.728C122.053 45.728 122.65 45.6213 123.29 45.408L124.506 51.808C122.543 52.6187 120.538 53.024 118.49 53.024C116.058 53.024 114.181 52.4053 112.858 51.168C111.578 49.888 110.938 48.032 110.938 45.6C110.938 44.9173 111.002 44.192 111.13 43.424L116.634 4.576L125.658 3.552L120.09 43.488ZM139.936 41.312C139.85 42.1653 139.808 42.6987 139.808 42.912C139.808 43.936 140.021 44.6613 140.448 45.088C140.874 45.5147 141.514 45.728 142.368 45.728C143.477 45.728 144.842 45.344 146.464 44.576L148.896 50.528C147.573 51.3387 146.122 51.9573 144.544 52.384C143.008 52.8107 141.514 53.024 140.064 53.024C137.034 53.024 134.709 52.2347 133.088 50.656C131.509 49.0347 130.72 46.7307 130.72 43.744C130.72 42.976 130.784 42.144 130.911 41.248L133.28 24.544H128.288L129.184 18.08H134.56L136.672 10.464L144.288 9.568L143.135 18.08H150.944L149.088 24.544H142.24L139.936 41.312ZM170.372 17.056C175.065 17.056 179.524 18.1867 183.748 20.448L180.548 42.72C180.462 43.488 180.42 44 180.42 44.256C180.42 44.9387 180.548 45.4933 180.804 45.92C181.102 46.304 181.593 46.6453 182.276 46.944L179.716 52.896C175.534 52.4693 173.06 50.592 172.292 47.264C169.518 51.104 166.148 53.024 162.18 53.024C158.681 53.024 155.972 51.8293 154.052 49.44C152.132 47.008 151.172 43.744 151.172 39.648C151.172 36.1067 151.833 32.608 153.156 29.152C154.478 25.696 156.569 22.816 159.428 20.512C162.329 18.208 165.977 17.056 170.372 17.056ZM170.18 23.648C167.961 23.648 166.126 24.4587 164.676 26.08C163.225 27.7013 162.158 29.7493 161.476 32.224C160.836 34.656 160.516 37.1307 160.516 39.648C160.516 44.0427 161.966 46.24 164.868 46.24C166.19 46.24 167.406 45.8133 168.516 44.96C169.625 44.1067 170.756 42.848 171.908 41.184L174.34 24.416C173.102 23.904 171.716 23.648 170.18 23.648ZM235.309 7.712L233.389 14.624H217.581L215.981 26.08H229.677L228.845 32.864H215.085L213.357 45.088H230.253L229.229 52H203.053L209.26 7.712H235.309ZM245.403 43.488L245.339 44.192C245.339 45.216 245.829 45.728 246.811 45.728C247.365 45.728 247.963 45.6213 248.603 45.408L249.819 51.808C247.856 52.6187 245.851 53.024 243.803 53.024C241.371 53.024 239.493 52.4053 238.171 51.168C236.891 49.888 236.251 48.032 236.251 45.6C236.251 44.9173 236.315 44.192 236.443 43.424L241.947 4.576L250.971 3.552L245.403 43.488ZM263.84 43.488L263.776 44.192C263.776 45.216 264.267 45.728 265.248 45.728C265.803 45.728 266.4 45.6213 267.04 45.408L268.256 51.808C266.293 52.6187 264.288 53.024 262.24 53.024C259.808 53.024 257.931 52.4053 256.608 51.168C255.328 49.888 254.688 48.032 254.688 45.6C254.688 44.9173 254.752 44.192 254.88 43.424L260.384 4.576L269.408 3.552L263.84 43.488ZM286.182 18.08L281.446 52H272.486L277.222 18.08H286.182ZM282.918 11.232C281.424 11.232 280.23 10.784 279.334 9.888C278.438 8.992 277.99 7.86133 277.99 6.496C277.99 4.78933 278.566 3.38133 279.718 2.272C280.87 1.16267 282.299 0.607998 284.006 0.607998C285.499 0.607998 286.694 1.056 287.59 1.952C288.486 2.80533 288.934 3.936 288.934 5.344C288.934 7.05067 288.358 8.45867 287.206 9.568C286.054 10.6773 284.624 11.232 282.918 11.232ZM304.314 53.024C299.877 53.024 296.442 51.7653 294.01 49.248C291.578 46.688 290.362 43.168 290.362 38.688C290.362 35.2747 290.981 31.9253 292.218 28.64C293.455 25.312 295.461 22.56 298.234 20.384C301.05 18.1653 304.634 17.056 308.986 17.056C313.381 17.056 316.794 18.3147 319.226 20.832C321.658 23.3493 322.874 26.8053 322.874 31.2C322.874 34.6133 322.277 37.984 321.082 41.312C319.887 44.64 317.903 47.4347 315.13 49.696C312.357 51.9147 308.751 53.024 304.314 53.024ZM304.89 46.176C308.047 46.176 310.287 44.5547 311.61 41.312C312.933 38.0693 313.615 34.5493 313.658 30.752C313.658 28.3627 313.21 26.6133 312.314 25.504C311.461 24.3947 310.159 23.84 308.41 23.84C306.191 23.84 304.421 24.6933 303.098 26.4C301.818 28.064 300.922 30.0907 300.41 32.48C299.898 34.8267 299.642 37.1093 299.642 39.328C299.642 41.6747 300.069 43.4027 300.922 44.512C301.818 45.6213 303.141 46.176 304.89 46.176ZM338.311 41.312C338.225 42.1653 338.183 42.6987 338.183 42.912C338.183 43.936 338.396 44.6613 338.823 45.088C339.249 45.5147 339.889 45.728 340.743 45.728C341.852 45.728 343.217 45.344 344.839 44.576L347.271 50.528C345.948 51.3387 344.497 51.9573 342.919 52.384C341.383 52.8107 339.889 53.024 338.439 53.024C335.409 53.024 333.084 52.2347 331.463 50.656C329.884 49.0347 329.095 46.7307 329.095 43.744C329.095 42.976 329.159 42.144 329.286 41.248L331.655 24.544H326.663L327.559 18.08H332.935L335.047 10.464L342.663 9.568L341.51 18.08H349.319L347.463 24.544H340.615L338.311 41.312ZM385.763 7.712C390.926 7.712 394.915 8.75733 397.731 10.848C400.59 12.896 402.019 15.9253 402.019 19.936C402.019 22.8373 401.358 25.568 400.035 28.128C398.712 30.688 396.6 32.8 393.699 34.464C390.798 36.0853 387.086 36.896 382.563 36.896H377.571L375.459 52H366.115L372.323 7.712H385.763ZM382.563 29.984C386.104 29.984 388.6 29.0453 390.051 27.168C391.544 25.248 392.291 22.944 392.291 20.256C392.291 16.416 389.838 14.496 384.931 14.496H380.643L378.531 29.984H382.563ZM415.564 53.024C411.127 53.024 407.692 51.7653 405.26 49.248C402.828 46.688 401.612 43.168 401.612 38.688C401.612 35.2747 402.231 31.9253 403.468 28.64C404.705 25.312 406.711 22.56 409.484 20.384C412.3 18.1653 415.884 17.056 420.236 17.056C424.631 17.056 428.044 18.3147 430.476 20.832C432.908 23.3493 434.124 26.8053 434.124 31.2C434.124 34.6133 433.527 37.984 432.332 41.312C431.137 44.64 429.153 47.4347 426.38 49.696C423.607 51.9147 420.001 53.024 415.564 53.024ZM416.14 46.176C419.297 46.176 421.537 44.5547 422.86 41.312C424.183 38.0693 424.865 34.5493 424.908 30.752C424.908 28.3627 424.46 26.6133 423.564 25.504C422.711 24.3947 421.409 23.84 419.66 23.84C417.441 23.84 415.671 24.6933 414.348 26.4C413.068 28.064 412.172 30.0907 411.66 32.48C411.148 34.8267 410.892 37.1093 410.892 39.328C410.892 41.6747 411.319 43.4027 412.172 44.512C413.068 45.6213 414.391 46.176 416.14 46.176ZM460.313 17.12C461.465 17.12 462.595 17.2907 463.705 17.632L461.145 26.464C460.206 26.1653 459.246 26.016 458.265 26.016C456.302 26.016 454.638 26.848 453.273 28.512C451.95 30.176 450.734 32.5867 449.625 35.744L447.321 52H438.361L443.097 18.08H450.841L450.649 24.544C451.843 22.112 453.273 20.2773 454.937 19.04C456.643 17.76 458.435 17.12 460.313 17.12ZM474.498 41.312C474.413 42.1653 474.37 42.6987 474.37 42.912C474.37 43.936 474.583 44.6613 475.01 45.088C475.437 45.5147 476.077 45.728 476.93 45.728C478.039 45.728 479.405 45.344 481.026 44.576L483.458 50.528C482.135 51.3387 480.685 51.9573 479.106 52.384C477.57 52.8107 476.077 53.024 474.626 53.024C471.597 53.024 469.271 52.2347 467.65 50.656C466.071 49.0347 465.282 46.7307 465.282 43.744C465.282 42.976 465.346 42.144 465.474 41.248L467.842 24.544H462.85L463.746 18.08H469.122L471.234 10.464L478.85 9.568L477.698 18.08H485.506L483.65 24.544H476.802L474.498 41.312ZM507.4 10.4C505.821 10.4 504.605 10.784 503.752 11.552C502.941 12.2773 502.429 13.4507 502.216 15.072L501.768 18.08H509.768L507.848 24.544H500.872L497.48 48.736C497.011 52.1493 496.115 54.944 494.792 57.12C493.469 59.3387 491.827 61.1093 489.864 62.432C487.901 63.7547 485.427 64.9707 482.44 66.08L480.136 59.424C482.739 58.4 484.68 57.1627 485.96 55.712C487.24 54.2613 488.093 52.0213 488.52 48.992L491.912 24.544H486.664L487.56 18.08H492.808L493.32 14.56C493.747 11.2747 495.112 8.62933 497.416 6.624C499.763 4.576 502.856 3.552 506.696 3.552C509.939 3.552 512.968 4.46933 515.784 6.304L512.584 11.808C511.133 10.8693 509.405 10.4 507.4 10.4ZM522.314 53.024C517.877 53.024 514.442 51.7653 512.01 49.248C509.578 46.688 508.362 43.168 508.362 38.688C508.362 35.2747 508.981 31.9253 510.218 28.64C511.455 25.312 513.461 22.56 516.234 20.384C519.05 18.1653 522.634 17.056 526.986 17.056C531.381 17.056 534.794 18.3147 537.226 20.832C539.658 23.3493 540.874 26.8053 540.874 31.2C540.874 34.6133 540.277 37.984 539.082 41.312C537.887 44.64 535.903 47.4347 533.13 49.696C530.357 51.9147 526.751 53.024 522.314 53.024ZM522.89 46.176C526.047 46.176 528.287 44.5547 529.61 41.312C530.933 38.0693 531.615 34.5493 531.658 30.752C531.658 28.3627 531.21 26.6133 530.314 25.504C529.461 24.3947 528.159 23.84 526.41 23.84C524.191 23.84 522.421 24.6933 521.098 26.4C519.818 28.064 518.922 30.0907 518.41 32.48C517.898 34.8267 517.642 37.1093 517.642 39.328C517.642 41.6747 518.069 43.4027 518.922 44.512C519.818 45.6213 521.141 46.176 522.89 46.176ZM554.903 43.488L554.839 44.192C554.839 45.216 555.329 45.728 556.311 45.728C556.865 45.728 557.463 45.6213 558.103 45.408L559.319 51.808C557.356 52.6187 555.351 53.024 553.303 53.024C550.871 53.024 548.993 52.4053 547.671 51.168C546.391 49.888 545.751 48.032 545.751 45.6C545.751 44.9173 545.815 44.192 545.943 43.424L551.447 4.576L560.471 3.552L554.903 43.488ZM577.244 18.08L572.508 52H563.548L568.284 18.08H577.244ZM573.98 11.232C572.487 11.232 571.292 10.784 570.396 9.888C569.5 8.992 569.052 7.86133 569.052 6.496C569.052 4.78933 569.628 3.38133 570.78 2.272C571.932 1.16267 573.361 0.607998 575.068 0.607998C576.561 0.607998 577.756 1.056 578.652 1.952C579.548 2.80533 579.996 3.936 579.996 5.344C579.996 7.05067 579.42 8.45867 578.268 9.568C577.116 10.6773 575.687 11.232 573.98 11.232ZM595.377 53.024C590.939 53.024 587.505 51.7653 585.073 49.248C582.641 46.688 581.424 43.168 581.424 38.688C581.424 35.2747 582.043 31.9253 583.281 28.64C584.518 25.312 586.523 22.56 589.297 20.384C592.113 18.1653 595.697 17.056 600.049 17.056C604.443 17.056 607.857 18.3147 610.289 20.832C612.721 23.3493 613.937 26.8053 613.937 31.2C613.937 34.6133 613.339 37.984 612.145 41.312C610.95 44.64 608.966 47.4347 606.193 49.696C603.419 51.9147 599.814 53.024 595.377 53.024ZM595.953 46.176C599.11 46.176 601.35 44.5547 602.673 41.312C603.995 38.0693 604.678 34.5493 604.721 30.752C604.721 28.3627 604.273 26.6133 603.377 25.504C602.523 24.3947 601.222 23.84 599.473 23.84C597.254 23.84 595.483 24.6933 594.161 26.4C592.881 28.064 591.985 30.0907 591.473 32.48C590.961 34.8267 590.705 37.1093 590.705 39.328C590.705 41.6747 591.131 43.4027 591.985 44.512C592.881 45.6213 594.203 46.176 595.953 46.176Z" fill="#DFAF2C"/>
</svg>
